<?xml version="1.0" standalone="no"?>
<!DOCTYPE svg PUBLIC "-//W3C//DTD SVG 20010904//EN"
 "http://www.w3.org/TR/2001/REC-SVG-20010904/DTD/svg10.dtd">
<svg version="1.0" xmlns="http://www.w3.org/2000/svg"
 width="221.000000pt" height="228.000000pt" viewBox="0 0 221.000000 228.000000"
 preserveAspectRatio="xMidYMid meet">
<metadata>
Created by potrace 1.10, written by Peter Selinger 2001-2011
</metadata>
<g transform="translate(0.000000,228.000000) scale(0.100000,-0.100000)"
fill="#000000" stroke="none">
<path d="M1225 1585 c-105 -27 -202 -63 -285 -105 -33 -17 -64 -30 -69 -30 -5
0 -21 20 -35 44 -32 54 -90 106 -119 106 -38 0 -87 -38 -107 -83 -23 -53 -36
-119 -55 -277 -8 -69 -19 -151 -25 -183 -13 -71 0 -129 37 -163 35 -33 73 -31
107 5 23 24 30 44 41 116 10 69 18 93 42 122 16 20 33 36 38 36 6 0 35 -47 66
-103 31 -57 73 -119 93 -137 72 -66 138 -33 191 94 67 161 168 313 207 313 25
0 78 -168 104 -330 24 -145 25 -410 1 -463 -14 -34 -19 -37 -44 -32 l-28 6 24
-20 c35 -31 50 -26 74 27 20 44 22 61 21 247 0 175 -4 215 -26 320 -14 66 -36
146 -48 178 -23 62 -64 117 -85 117 -17 0 -83 -74 -131 -148 -21 -30 -59 -105
-86 -166 -89 -204 -126 -199 -247 34 -49 94 -61 125 -50 129 8 2 26 17 41 33
l27 29 34 -63 c19 -35 46 -85 59 -112 l24 -48 18 48 c44 119 160 285 234 334
112 74 211 4 255 -178 68 -282 37 -738 -55 -805 l-27 -20 -37 28 c-35 27 -36
27 -23 4 41 -78 115 -59 157 40 41 94 54 216 50 446 -6 278 -33 393 -114 492
-40 49 -32 60 34 50 43 -7 72 -38 72 -76 0 -20 2 -23 10 -11 17 26 11 76 -11
96 -34 31 -189 25 -299 -11 -183 -59 -421 -202 -507 -302 -74 -87 -173 -240
-173 -266 1 -21 47 44 60 84 17 50 33 51 25 2 -14 -85 -18 -99 -33 -115 -21
-24 -38 -22 -67 7 -30 29 -33 89 -11 182 7 32 19 111 26 176 18 185 40 250 92
278 33 18 75 -16 119 -96 l40 -74 37 23 c61 37 230 106 332 134 112 30 281 37
338 13 46 -19 66 -61 53 -108 -14 -49 -5 -55 14 -10 19 46 19 62 -2 98 -42 72
-219 91 -398 44z m-71 -177 c-4 -7 -28 -44 -54 -83 -25 -38 -55 -87 -65 -107
-11 -21 -22 -38 -25 -38 -3 0 -20 27 -38 60 l-33 59 21 18 c27 24 172 103 188
103 8 0 10 -5 6 -12z"/>
<path d="M715 1375 c-3 -22 -8 -50 -11 -62 -6 -30 7 -29 35 1 l23 24 -20 38
-20 39 -7 -40z"/>
</g>
</svg>
